<svg xmlns="http://www.w3.org/2000/svg" width="972" height="174" viewBox="0 0 972 174" role="img" aria-label="traintrack">
  <defs>
    <linearGradient id="g" gradientUnits="userSpaceOnUse" x1="30" y1="0" x2="942" y2="0">
      <stop offset="0" stop-color="#4F8CFF"/>
      <stop offset="0.5" stop-color="#A06CFF"/>
      <stop offset="1" stop-color="#FF5F9E"/>
    </linearGradient>
  </defs>
  <rect width="972" height="174" rx="14" fill="#0B0E14"/>
  <rect x="30" y="30" width="16" height="16" rx="2.5" fill="url(#g)"/><rect x="46" y="30" width="16" height="16" rx="2.5" fill="url(#g)"/><rect x="62" y="30" width="16" height="16" rx="2.5" fill="url(#g)"/><rect x="78" y="30" width="16" height="16" rx="2.5" fill="url(#g)"/><rect x="94" y="30" width="16" height="16" rx="2.5" fill="url(#g)"/><rect x="62" y="46" width="16" height="16" rx="2.5" fill="url(#g)"/><rect x="62" y="62" width="16" height="16" rx="2.5" fill="url(#g)"/><rect x="62" y="78" width="16" height="16" rx="2.5" fill="url(#g)"/><rect x="62" y="94" width="16" height="16" rx="2.5" fill="url(#g)"/><rect x="126" y="30" width="16" height="16" rx="2.5" fill="url(#g)"/><rect x="142" y="30" width="16" height="16" rx="2.5" fill="url(#g)"/><rect x="158" y="30" width="16" height="16" rx="2.5" fill="url(#g)"/><rect x="174" y="30" width="16" height="16" rx="2.5" fill="url(#g)"/><rect x="126" y="46" width="16" height="16" rx="2.5" fill="url(#g)"/><rect x="190" y="46" width="16" height="16" rx="2.5" fill="url(#g)"/><rect x="126" y="62" width="16" height="16" rx="2.5" fill="url(#g)"/><rect x="142" y="62" width="16" height="16" rx="2.5" fill="url(#g)"/><rect x="158" y="62" width="16" height="16" rx="2.5" fill="url(#g)"/><rect x="174" y="62" width="16" height="16" rx="2.5" fill="url(#g)"/><rect x="126" y="78" width="16" height="16" rx="2.5" fill="url(#g)"/><rect x="174" y="78" width="16" height="16" rx="2.5" fill="url(#g)"/><rect x="126" y="94" width="16" height="16" rx="2.5" fill="url(#g)"/><rect x="190" y="94" width="16" height="16" rx="2.5" fill="url(#g)"/><rect x="238" y="30" width="16" height="16" rx="2.5" fill="url(#g)"/><rect x="254" y="30" width="16" height="16" rx="2.5" fill="url(#g)"/><rect x="270" y="30" width="16" height="16" rx="2.5" fill="url(#g)"/><rect x="222" y="46" width="16" height="16" rx="2.5" fill="url(#g)"/><rect x="286" y="46" width="16" height="16" rx="2.5" fill="url(#g)"/><rect x="222" y="62" width="16" height="16" rx="2.5" fill="url(#g)"/><rect x="238" y="62" width="16" height="16" rx="2.5" fill="url(#g)"/><rect x="254" y="62" width="16" height="16" rx="2.5" fill="url(#g)"/><rect x="270" y="62" width="16" height="16" rx="2.5" fill="url(#g)"/><rect x="286" y="62" width="16" height="16" rx="2.5" fill="url(#g)"/><rect x="222" y="78" width="16" height="16" rx="2.5" fill="url(#g)"/><rect x="286" y="78" width="16" height="16" rx="2.5" fill="url(#g)"/><rect x="222" y="94" width="16" height="16" rx="2.5" fill="url(#g)"/><rect x="286" y="94" width="16" height="16" rx="2.5" fill="url(#g)"/><rect x="318" y="30" width="16" height="16" rx="2.5" fill="url(#g)"/><rect x="334" y="30" width="16" height="16" rx="2.5" fill="url(#g)"/><rect x="350" y="30" width="16" height="16" rx="2.5" fill="url(#g)"/><rect x="334" y="46" width="16" height="16" rx="2.5" fill="url(#g)"/><rect x="334" y="62" width="16" height="16" rx="2.5" fill="url(#g)"/><rect x="334" y="78" width="16" height="16" rx="2.5" fill="url(#g)"/><rect x="318" y="94" width="16" height="16" rx="2.5" fill="url(#g)"/><rect x="334" y="94" width="16" height="16" rx="2.5" fill="url(#g)"/><rect x="350" y="94" width="16" height="16" rx="2.5" fill="url(#g)"/><rect x="382" y="30" width="16" height="16" rx="2.5" fill="url(#g)"/><rect x="446" y="30" width="16" height="16" rx="2.5" fill="url(#g)"/><rect x="382" y="46" width="16" height="16" rx="2.5" fill="url(#g)"/><rect x="398" y="46" width="16" height="16" rx="2.5" fill="url(#g)"/><rect x="446" y="46" width="16" height="16" rx="2.5" fill="url(#g)"/><rect x="382" y="62" width="16" height="16" rx="2.5" fill="url(#g)"/><rect x="414" y="62" width="16" height="16" rx="2.5" fill="url(#g)"/><rect x="446" y="62" width="16" height="16" rx="2.5" fill="url(#g)"/><rect x="382" y="78" width="16" height="16" rx="2.5" fill="url(#g)"/><rect x="430" y="78" width="16" height="16" rx="2.5" fill="url(#g)"/><rect x="446" y="78" width="16" height="16" rx="2.5" fill="url(#g)"/><rect x="382" y="94" width="16" height="16" rx="2.5" fill="url(#g)"/><rect x="446" y="94" width="16" height="16" rx="2.5" fill="url(#g)"/><rect x="478" y="30" width="16" height="16" rx="2.5" fill="url(#g)"/><rect x="494" y="30" width="16" height="16" rx="2.5" fill="url(#g)"/><rect x="510" y="30" width="16" height="16" rx="2.5" fill="url(#g)"/><rect x="526" y="30" width="16" height="16" rx="2.5" fill="url(#g)"/><rect x="542" y="30" width="16" height="16" rx="2.5" fill="url(#g)"/><rect x="510" y="46" width="16" height="16" rx="2.5" fill="url(#g)"/><rect x="510" y="62" width="16" height="16" rx="2.5" fill="url(#g)"/><rect x="510" y="78" width="16" height="16" rx="2.5" fill="url(#g)"/><rect x="510" y="94" width="16" height="16" rx="2.5" fill="url(#g)"/><rect x="574" y="30" width="16" height="16" rx="2.5" fill="url(#g)"/><rect x="590" y="30" width="16" height="16" rx="2.5" fill="url(#g)"/><rect x="606" y="30" width="16" height="16" rx="2.5" fill="url(#g)"/><rect x="622" y="30" width="16" height="16" rx="2.5" fill="url(#g)"/><rect x="574" y="46" width="16" height="16" rx="2.5" fill="url(#g)"/><rect x="638" y="46" width="16" height="16" rx="2.5" fill="url(#g)"/><rect x="574" y="62" width="16" height="16" rx="2.5" fill="url(#g)"/><rect x="590" y="62" width="16" height="16" rx="2.5" fill="url(#g)"/><rect x="606" y="62" width="16" height="16" rx="2.5" fill="url(#g)"/><rect x="622" y="62" width="16" height="16" rx="2.5" fill="url(#g)"/><rect x="574" y="78" width="16" height="16" rx="2.5" fill="url(#g)"/><rect x="622" y="78" width="16" height="16" rx="2.5" fill="url(#g)"/><rect x="574" y="94" width="16" height="16" rx="2.5" fill="url(#g)"/><rect x="638" y="94" width="16" height="16" rx="2.5" fill="url(#g)"/><rect x="686" y="30" width="16" height="16" rx="2.5" fill="url(#g)"/><rect x="702" y="30" width="16" height="16" rx="2.5" fill="url(#g)"/><rect x="718" y="30" width="16" height="16" rx="2.5" fill="url(#g)"/><rect x="670" y="46" width="16" height="16" rx="2.5" fill="url(#g)"/><rect x="734" y="46" width="16" height="16" rx="2.5" fill="url(#g)"/><rect x="670" y="62" width="16" height="16" rx="2.5" fill="url(#g)"/><rect x="686" y="62" width="16" height="16" rx="2.5" fill="url(#g)"/><rect x="702" y="62" width="16" height="16" rx="2.5" fill="url(#g)"/><rect x="718" y="62" width="16" height="16" rx="2.5" fill="url(#g)"/><rect x="734" y="62" width="16" height="16" rx="2.5" fill="url(#g)"/><rect x="670" y="78" width="16" height="16" rx="2.5" fill="url(#g)"/><rect x="734" y="78" width="16" height="16" rx="2.5" fill="url(#g)"/><rect x="670" y="94" width="16" height="16" rx="2.5" fill="url(#g)"/><rect x="734" y="94" width="16" height="16" rx="2.5" fill="url(#g)"/><rect x="782" y="30" width="16" height="16" rx="2.5" fill="url(#g)"/><rect x="798" y="30" width="16" height="16" rx="2.5" fill="url(#g)"/><rect x="814" y="30" width="16" height="16" rx="2.5" fill="url(#g)"/><rect x="830" y="30" width="16" height="16" rx="2.5" fill="url(#g)"/><rect x="766" y="46" width="16" height="16" rx="2.5" fill="url(#g)"/><rect x="766" y="62" width="16" height="16" rx="2.5" fill="url(#g)"/><rect x="766" y="78" width="16" height="16" rx="2.5" fill="url(#g)"/><rect x="782" y="94" width="16" height="16" rx="2.5" fill="url(#g)"/><rect x="798" y="94" width="16" height="16" rx="2.5" fill="url(#g)"/><rect x="814" y="94" width="16" height="16" rx="2.5" fill="url(#g)"/><rect x="830" y="94" width="16" height="16" rx="2.5" fill="url(#g)"/><rect x="862" y="30" width="16" height="16" rx="2.5" fill="url(#g)"/><rect x="926" y="30" width="16" height="16" rx="2.5" fill="url(#g)"/><rect x="862" y="46" width="16" height="16" rx="2.5" fill="url(#g)"/><rect x="910" y="46" width="16" height="16" rx="2.5" fill="url(#g)"/><rect x="862" y="62" width="16" height="16" rx="2.5" fill="url(#g)"/><rect x="878" y="62" width="16" height="16" rx="2.5" fill="url(#g)"/><rect x="894" y="62" width="16" height="16" rx="2.5" fill="url(#g)"/><rect x="862" y="78" width="16" height="16" rx="2.5" fill="url(#g)"/><rect x="910" y="78" width="16" height="16" rx="2.5" fill="url(#g)"/><rect x="862" y="94" width="16" height="16" rx="2.5" fill="url(#g)"/><rect x="926" y="94" width="16" height="16" rx="2.5" fill="url(#g)"/>
  <text x="486" y="134" text-anchor="middle" fill="#8b95a7" font-size="14" font-family="ui-monospace, SFMono-Regular, Menlo, monospace">your coding agents, working as a team · no daemon, no wrapper</text>
</svg>
